HIERARCHY
ROOT SpineBase
{
  OFFSET 0.000000 0.000000 0.000000
  CHANNELS 6 Xposition Yposition Zposition Zrotation Xrotation Yrotation
  JOINT SpineMid
  {
    OFFSET 0.000000 28.230963 0.000000
    CHANNELS 3 Zrotation Xrotation Yrotation
    JOINT SpineShoulder
    {
      OFFSET -0.267096 20.779856 -0.616979
      CHANNELS 3 Zrotation Xrotation Yrotation
      JOINT Neck
      {
        OFFSET -0.156186 6.836455 -0.472800
        CHANNELS 3 Zrotation Xrotation Yrotation
        JOINT Head
        {
          OFFSET -0.278315 13.624117 -2.652374
          CHANNELS 3 Zrotation Xrotation Yrotation
          End Site
          {
            OFFSET 0 0 0
          }
        }
      }
      JOINT ShoulderLeft
      {
        OFFSET -16.247200 -2.236159 -0.291210
        CHANNELS 3 Zrotation Xrotation Yrotation
        JOINT ElbowLeft
        {
          OFFSET -6.057246 -21.386950 0.327748
          CHANNELS 3 Zrotation Xrotation Yrotation
          JOINT WristLeft
          {
            OFFSET 7.102213 -8.841806 -19.096458
            CHANNELS 3 Zrotation Xrotation Yrotation
            JOINT HandLeft
            {
              OFFSET 2.151227 -0.710919 -8.367757
              CHANNELS 3 Zrotation Xrotation Yrotation
              JOINT HandTipLeft
              {
                OFFSET -0.034097 -4.168817 -7.308072
                CHANNELS 3 Zrotation Xrotation Yrotation
                End Site
                {
                  OFFSET 0 0 0
                }
              }
              JOINT ThumbLeft
              {
                OFFSET 1.124887 3.608693 -2.093435
                CHANNELS 3 Zrotation Xrotation Yrotation
                End Site
                {
                  OFFSET 0 0 0
                }
              }
            }
          }
        }
      }
      JOINT ShoulderRight
      {
        OFFSET 15.400284 -2.971977 -4.418105
        CHANNELS 3 Zrotation Xrotation Yrotation
        JOINT ElbowRight
        {
          OFFSET -3.342083 -14.175497 -10.334085
          CHANNELS 3 Zrotation Xrotation Yrotation
          JOINT WristRight
          {
            OFFSET -12.555540 -10.647568 -16.712290
            CHANNELS 3 Zrotation Xrotation Yrotation
            JOINT HandRight
            {
              OFFSET -5.850379 -3.739616 -8.748736
              CHANNELS 3 Zrotation Xrotation Yrotation
              JOINT HandTipRight
              {
                OFFSET -3.713971 -1.653674 -1.742323
                CHANNELS 3 Zrotation Xrotation Yrotation
                End Site
                {
                  OFFSET 0 0 0
                }
              }
              JOINT ThumbRight
              {
                OFFSET -5.812852 -1.483031 7.209252
                CHANNELS 3 Zrotation Xrotation Yrotation
                End Site
                {
                  OFFSET 0 0 0
                }
              }
            }
          }
        }
      }
    }
  }
  JOINT HipLeft
  {
    OFFSET -7.290265 0.287174 -2.060806
    CHANNELS 3 Zrotation Xrotation Yrotation
    JOINT KneeLeft
    {
      OFFSET 1.032629 -39.464720 7.232054
      CHANNELS 3 Zrotation Xrotation Yrotation
      JOINT AnkleLeft
      {
        OFFSET 1.659790 -34.261132 9.505560
        CHANNELS 3 Zrotation Xrotation Yrotation
        JOINT FootLeft
        {
          OFFSET 4.583129 -6.792421 -5.733733
          CHANNELS 3 Zrotation Xrotation Yrotation
          End Site
          {
            OFFSET 0 0 0
          }
        }
      }
    }
  }
  JOINT HipRight
  {
    OFFSET 5.888100 0.756450 -4.136652
    CHANNELS 3 Zrotation Xrotation Yrotation
    JOINT KneeRight
    {
      OFFSET 3.896142 -34.591200 3.975939
      CHANNELS 3 Zrotation Xrotation Yrotation
      JOINT AnkleRight
      {
        OFFSET 3.830488 -42.293296 7.529040
        CHANNELS 3 Zrotation Xrotation Yrotation
        JOINT FootRight
        {
          OFFSET 1.634373 -7.063349 -6.725403
          CHANNELS 3 Zrotation Xrotation Yrotation
          End Site
          {
            OFFSET 0 0 0
          }
        }
      }
    }
  }
}
MOTION
Frames: 16
Frame Time: 0.033333
75.722273 83.920847 341.513351 -0.000000 0.000000 8.951634 0.000000 0.000000 -8.951634 -0.000000 0.000000 0.000000 -0.000000 0.000000 0.000000 0.000000 0.000000 0.000000 -0.000000 0.000000 0.000000 -0.000000 0.000000 0.000000 -0.000000 0.000000 0.000000 -0.000000 0.000000 0.000000 0.000000 0.000000 0.000000 0.000000 0.000000 0.000000 -0.000000 0.000000 0.000000 -0.000000 0.000000 0.000000 -0.000000 0.000000 0.000000 -0.000000 0.000000 0.000000 0.000000 0.000000 0.000000 0.000000 0.000000 0.000000 0.000000 0.000000 -8.951634 -0.000000 0.000000 0.000000 -0.000000 0.000000 0.000000 0.000000 0.000000 0.000000 0.000000 0.000000 -8.951634 -0.000000 0.000000 0.000000 -0.000000 0.000000 0.000000 0.000000 0.000000 0.000000
75.681678 83.809797 341.500800 -0.079506 0.072965 9.051305 0.067038 -0.084564 -9.051205 -0.000000 0.000000 0.000000 -0.000000 0.000000 0.000000 0.000000 0.000000 0.000000 -0.000000 0.000000 0.000000 -1.961996 -3.590620 1.405724 2.643759 4.107631 -6.202025 1.041681 12.590521 0.556885 0.000000 0.000000 0.000000 0.000000 0.000000 0.000000 0.806708 -5.749728 0.841308 -1.396735 7.199336 -1.284720 1.968151 -5.446822 4.521247 1.761456 0.869254 0.200609 0.000000 0.000000 0.000000 0.000000 0.000000 0.000000 0.067038 -0.084564 -9.051205 -0.000000 0.000000 0.000000 -3.957833 6.705046 7.884704 0.000000 0.000000 0.000000 0.067038 -0.084564 -9.051205 -0.000000 0.000000 0.000000 1.189833 2.049633 -0.666950 0.000000 0.000000 0.000000
75.637533 83.710420 341.485242 -0.138857 0.129651 9.088332 0.116635 -0.149956 -9.088022 -0.000000 0.000000 0.000000 -0.000000 0.000000 0.000000 0.000000 0.000000 0.000000 -0.000000 0.000000 0.000000 -3.668738 -6.845894 2.604435 5.623961 8.073988 -14.472209 -0.249886 21.209912 3.823984 0.000000 0.000000 0.000000 0.000000 0.000000 0.000000 2.285091 -10.813162 1.195225 -3.541726 13.760481 -1.561382 3.247668 -8.403389 6.993215 3.085074 0.807860 0.044891 0.000000 0.000000 0.000000 0.000000 0.000000 0.000000 0.116635 -0.149956 -9.088022 -0.000000 0.000000 0.000000 -8.227891 11.123268 14.709695 0.000000 0.000000 0.000000 0.116635 -0.149956 -9.088022 -0.000000 0.000000 0.000000 2.265567 3.893182 -1.285734 0.000000 0.000000 0.000000
75.589838 83.622714 341.466676 -0.178216 0.170195 9.063178 0.149182 -0.196142 -9.062658 -0.000000 0.000000 0.000000 -0.000000 0.000000 0.000000 0.000000 0.000000 0.000000 -0.000000 0.000000 0.000000 -5.013669 -9.475015 3.550965 9.018900 11.694950 -24.927936 -4.283103 25.582004 10.393777 0.000000 0.000000 0.000000 0.000000 0.000000 0.000000 4.418210 -15.206582 1.089859 -6.707064 19.624592 -0.682021 3.999411 -9.975458 8.203836 3.943897 0.512980 -0.751660 0.000000 0.000000 0.000000 0.000000 0.000000 0.000000 0.149182 -0.196142 -9.062658 -0.000000 0.000000 0.000000 -12.312083 13.501515 20.278097 0.000000 0.000000 0.000000 0.149182 -0.196142 -9.062658 -0.000000 0.000000 0.000000 3.216574 5.526762 -1.842163 0.000000 0.000000 0.000000
75.538592 83.546680 341.445102 -0.197716 0.194712 8.976278 0.164916 -0.223175 -8.975620 -0.000000 0.000000 0.000000 -0.000000 0.000000 0.000000 0.000000 0.000000 0.000000 -0.000000 0.000000 0.000000 -5.906521 -11.215586 4.217633 12.648869 14.677669 -35.752692 -9.256667 25.974554 17.945565 0.000000 0.000000 0.000000 0.000000 0.000000 0.000000 7.224676 -18.973395 0.520803 -11.198283 24.678440 1.543258 4.325206 -10.585123 8.491119 4.369022 0.299845 -2.427492 0.000000 0.000000 0.000000 0.000000 0.000000 0.000000 0.164916 -0.223175 -8.975620 -0.000000 0.000000 0.000000 -15.976138 14.202313 24.564965 0.000000 0.000000 0.000000 0.164916 -0.223175 -8.975620 -0.000000 0.000000 0.000000 4.034087 6.950156 -2.323933 0.000000 0.000000 0.000000
75.483796 83.482319 341.420520 -0.197464 0.203294 8.828039 0.163926 -0.231189 -8.827357 -0.000000 0.000000 0.000000 -0.000000 0.000000 0.000000 0.000000 0.000000 0.000000 -0.000000 0.000000 0.000000 -6.281701 -11.872012 4.586915 15.457932 16.804457 -41.807884 -11.086525 24.479402 20.761296 0.000000 0.000000 0.000000 0.000000 0.000000 0.000000 10.749700 -22.160264 -0.548044 -17.322276 28.694029 5.304352 4.277473 -10.363208 7.998130 4.370952 0.447417 -5.344454 0.000000 0.000000 0.000000 0.000000 0.000000 0.000000 0.163926 -0.231189 -8.827357 0.625726 -0.535973 0.150332 -19.801958 14.050309 27.658996 0.000000 0.000000 0.000000 0.163926 -0.231189 -8.827357 -0.000000 0.000000 0.000000 4.711140 8.165645 -2.720736 0.000000 0.000000 0.000000
75.434845 83.457498 341.382666 -0.158645 0.229445 8.782446 0.121754 -0.250977 -8.781861 -0.000000 0.000000 0.000000 -0.000000 0.000000 0.000000 0.000000 0.000000 0.000000 0.494720 0.883926 -0.246918 -6.263491 -11.820283 4.386741 21.446888 24.486230 -41.459642 -7.126603 15.298660 14.456530 0.000000 0.000000 0.000000 0.000000 0.000000 0.000000 17.018250 -32.397390 0.438807 -26.648390 37.711387 11.769130 1.905609 -6.217549 5.640732 6.206456 0.806477 -13.593528 0.000000 0.000000 0.000000 0.000000 0.000000 0.000000 0.121754 -0.250977 -8.781861 0.817542 -0.660853 0.199138 -24.317852 8.746283 29.087395 0.000000 0.000000 0.000000 0.121754 -0.250977 -8.781861 -0.000000 0.000000 0.000000 5.698264 9.681001 -3.357235 0.000000 0.000000 0.000000
75.360940 83.433975 341.369507 -0.123898 0.249446 8.589672 0.085253 -0.265153 -8.589205 -0.000000 0.000000 0.000000 -0.000000 0.000000 0.000000 0.000000 0.000000 0.000000 0.330820 1.357794 -0.383807 -4.857905 -9.392473 4.086694 17.527345 25.832358 -25.791743 1.599936 12.129179 -0.938903 0.000000 0.000000 0.000000 0.000000 0.000000 0.000000 21.459954 -32.696634 -2.070565 -36.632115 37.051196 18.986720 1.904931 -5.159213 4.108922 6.249272 2.289411 -19.691528 0.000000 0.000000 0.000000 0.000000 0.000000 0.000000 0.085253 -0.265153 -8.589205 1.009152 -0.749949 0.249703 -26.998679 5.003684 29.328009 0.000000 0.000000 0.000000 0.085253 -0.265153 -8.589205 -0.131267 -0.892792 -0.105117 8.149334 8.941030 -5.875507 0.000000 0.000000 0.000000
75.290203 83.372881 341.341408 -0.072601 0.206544 8.150484 0.042585 -0.214751 -8.150273 -0.000000 0.000000 0.000000 -0.970191 -0.120474 -0.192358 0.000000 0.000000 0.000000 -0.246000 1.662511 -0.470908 -3.225613 -6.649526 4.296025 8.572479 15.188704 -10.387111 10.226911 13.293242 -15.073029 0.000000 0.000000 0.000000 0.000000 0.000000 0.000000 25.761065 -26.782280 -8.312219 -46.667182 29.243137 24.723192 4.114939 -6.453521 2.378752 -0.440806 9.069567 -24.542121 0.000000 0.000000 0.000000 0.000000 0.000000 0.000000 0.042585 -0.214751 -8.150273 1.159554 -0.770709 0.291497 -26.034728 6.659818 29.138023 0.000000 0.000000 0.000000 0.042585 -0.214751 -8.150273 -0.235054 -0.932915 -0.128092 11.161951 2.250369 -9.959595 0.000000 0.000000 0.000000
75.217321 83.288063 341.248831 -0.017761 0.123773 7.372329 0.001732 -0.125029 -7.372308 -0.000000 0.000000 0.000000 -1.567355 -0.137582 -0.309861 0.000000 0.000000 0.000000 -1.510640 1.651801 -0.467586 -1.638279 -5.091327 4.839060 4.817591 6.576533 -6.264629 15.362798 17.430260 -22.665327 0.000000 0.000000 0.000000 0.000000 0.000000 0.000000 30.906263 -14.456433 -18.417754 -52.985735 14.808214 23.548748 5.422903 -7.305828 1.774139 -8.813211 19.172640 -30.701098 0.000000 0.000000 0.000000 0.000000 0.000000 0.000000 0.001732 -0.125029 -7.372308 1.283196 -0.738003 0.327777 -27.570887 8.554538 32.124109 0.000000 0.000000 0.000000 0.001732 -0.125029 -7.372308 -0.250285 -1.041390 -0.140951 11.024141 1.848830 -9.933550 0.000000 0.000000 0.000000
75.171847 83.185215 341.200453 0.051456 -0.105938 6.315866 -0.039489 0.110956 -6.315780 -0.000000 0.000000 0.000000 -2.301368 -0.047477 -0.450165 0.000000 0.000000 0.000000 -3.309418 1.034070 -0.311231 -0.505200 -5.675078 5.294761 2.749910 0.226717 -4.287530 15.954782 16.047967 -24.386639 0.000000 0.000000 0.000000 0.000000 0.000000 0.000000 36.894651 1.141353 -30.003146 -59.118697 1.366848 16.260886 7.044630 -7.284115 0.446735 -35.039276 35.072355 -25.942916 0.000000 0.000000 0.000000 0.000000 0.000000 0.000000 -0.039489 0.110956 -6.315780 1.407114 -0.684116 0.364851 -25.723060 6.248472 28.127477 0.000000 0.000000 0.000000 0.155373 0.911230 -6.213296 -0.311569 -1.976333 -0.250807 9.252751 0.631194 -8.628778 0.000000 0.000000 0.000000
75.144022 83.039066 341.186180 0.083079 -0.410633 5.129249 -0.046036 0.416416 -5.128784 -0.102664 -0.875702 -0.027877 -2.959817 1.037526 -0.515837 0.000000 0.000000 0.000000 -5.404393 0.754340 0.053555 0.335522 -7.518136 5.792330 1.183488 -5.926557 -2.779683 15.830728 12.875641 -26.186032 0.000000 0.000000 0.000000 0.000000 0.000000 0.000000 46.354979 9.197883 -41.987060 -73.506507 -1.415541 7.673513 5.872424 -4.327933 0.432456 -71.413794 28.029874 -8.580372 0.000000 0.000000 0.000000 0.000000 0.000000 0.000000 0.111155 -0.386579 -5.107566 1.297330 0.127365 0.358722 -25.348611 6.298485 27.554165 0.000000 0.000000 0.000000 0.160808 1.880647 -4.957706 -0.107389 -2.924317 -0.312303 7.876249 3.325217 -7.019888 0.000000 0.000000 0.000000
75.140980 82.876706 341.190614 0.142323 -0.992629 3.971157 -0.278446 -0.475784 -3.990491 -0.027612 -0.277472 -0.027073 -3.689953 1.816051 -0.576085 0.000000 0.000000 0.000000 -7.572842 -0.074431 0.552003 -0.248572 -12.767125 6.145118 1.795743 -6.986061 -3.115870 13.491897 7.123295 -24.900210 0.000000 0.000000 0.000000 0.000000 0.000000 0.000000 54.806978 12.939637 -52.144471 -89.058191 6.093881 -1.173840 -3.422390 9.751501 0.307343 -73.078948 1.072517 -26.007110 0.000000 0.000000 0.000000 0.000000 0.000000 0.000000 -0.151065 0.049369 -3.995655 1.685554 0.261830 0.439096 -24.952640 7.892453 27.990197 0.000000 0.000000 0.000000 -0.014813 3.140203 -3.740263 0.268653 -3.859333 -0.340685 5.579553 3.379086 -5.119143 0.000000 0.000000 0.000000
75.125115 82.686534 341.198880 0.193842 -1.756351 3.028269 -0.347578 -0.704917 -3.056756 -0.056179 -0.356275 -0.040614 -4.345078 2.480670 -0.603818 0.000000 0.000000 0.000000 -9.431705 -1.323787 1.199228 -2.248306 -20.216904 6.008588 3.083376 -6.087888 -4.997391 12.016854 4.493536 -22.761765 0.000000 0.000000 0.000000 0.000000 0.000000 0.000000 60.493476 12.603901 -58.564008 -98.516449 17.802884 -7.241743 -21.891778 22.099459 5.713249 -74.724822 -16.615884 -54.324041 0.000000 0.000000 0.000000 0.000000 0.000000 0.000000 -0.405673 0.660385 -3.091543 2.085711 0.379277 0.521221 -25.689065 2.819830 24.893056 0.000000 0.000000 0.000000 -0.267869 4.542886 -2.738056 0.737649 -4.733372 -0.338809 3.665770 3.218317 -3.638427 0.000000 0.000000 0.000000
75.070790 82.448047 341.174112 0.206211 -2.652533 2.056392 -0.360110 -1.013680 -2.096213 -0.075448 -0.391687 -0.053640 -4.957412 3.720399 -0.557844 0.000000 0.000000 0.000000 -11.120305 -2.526417 1.891094 -4.815868 -27.852088 5.217829 3.506047 -6.514539 -6.943378 11.088864 3.535072 -19.593470 0.000000 0.000000 0.000000 0.000000 0.000000 0.000000 65.796281 14.068742 -65.530845 -99.286402 27.963662 -15.900569 -39.694186 4.331265 10.188392 -71.318541 -16.979834 -58.749206 0.000000 0.000000 0.000000 0.000000 0.000000 0.000000 -0.516975 1.300632 -2.136122 2.326006 0.583524 0.570105 -28.407700 -10.101091 16.427245 0.000000 0.000000 0.000000 -0.500804 6.168945 -1.682925 1.100888 -5.794899 -0.369246 4.675961 -0.951451 -5.841286 0.000000 0.000000 0.000000
75.019596 82.216019 341.191574 0.211252 -3.698253 1.797774 -0.363120 -1.288503 -1.849744 -0.056641 -0.454097 -0.066571 -5.108438 4.563226 -0.451499 0.000000 0.000000 0.000000 -11.410548 -4.307457 2.749785 -9.055590 -34.315151 3.615754 3.354936 -7.538593 -8.371620 11.919358 6.481620 -18.527164 0.000000 0.000000 0.000000 0.000000 0.000000 0.000000 67.123325 16.972652 -68.608360 -96.571725 32.406012 -19.412068 -22.932951 1.231493 5.535915 -99.246669 -23.359731 -63.982559 0.000000 0.000000 0.000000 0.000000 0.000000 0.000000 -0.601423 2.318953 -1.882348 2.536647 0.565673 0.613594 -29.304404 -11.800351 15.511985 0.000000 0.000000 0.000000 -0.594067 7.988506 -1.326256 1.265941 -6.921062 -0.441079 4.657021 -4.282029 -6.799614 0.000000 0.000000 0.000000
